<svg width="21" height="20" viewBox="0 0 21 20" fill="none" xmlns="http://www.w3.org/2000/svg">
<path d="M16.499 12.3893C16.0896 11.963 15.5957 11.735 15.0723 11.735C14.5531 11.735 14.055 11.9587 13.6287 12.3851L12.2948 13.7147C12.185 13.6556 12.0753 13.6008 11.9698 13.5459C11.8178 13.4699 11.6743 13.3982 11.5519 13.3222C10.3024 12.5286 9.16692 11.4944 8.07787 10.1563C7.55022 9.48938 7.19565 8.92797 6.93816 8.35812C7.28429 8.04153 7.6051 7.71229 7.91746 7.3957C8.03565 7.27751 8.15385 7.1551 8.27204 7.0369C9.15848 6.15046 9.15848 5.00232 8.27204 4.11588L7.11967 2.96351C6.98881 2.83265 6.85374 2.69758 6.7271 2.5625C6.47383 2.30079 6.2079 2.03064 5.93353 1.77737C5.52408 1.37214 5.03443 1.15686 4.51945 1.15686C4.00447 1.15686 3.50637 1.37214 3.08426 1.77737C3.08004 1.78159 3.08004 1.78159 3.07582 1.78581L1.64063 3.23366C1.10033 3.77397 0.792183 4.43246 0.724645 5.19649C0.623337 6.42906 0.986355 7.57721 1.26495 8.32857C1.94877 10.1732 2.97029 11.8828 4.49412 13.7147C6.34298 15.9224 8.56752 17.6657 11.1086 18.8941C12.0795 19.3542 13.3754 19.8987 14.8232 19.9916C14.9119 19.9958 15.0048 20 15.0892 20C16.0643 20 16.8832 19.6497 17.5248 18.9532C17.529 18.9447 17.5374 18.9405 17.5417 18.9321C17.7612 18.6661 18.0144 18.4255 18.2804 18.168C18.4619 17.995 18.6476 17.8135 18.8291 17.6235C19.247 17.1887 19.4665 16.6822 19.4665 16.163C19.4665 15.6396 19.2428 15.1373 18.8164 14.7152L16.499 12.3893ZM18.0102 16.8342C18.006 16.8342 18.006 16.8384 18.0102 16.8342C17.8456 17.0114 17.6767 17.1719 17.4952 17.3491C17.2208 17.6109 16.9423 17.8852 16.6805 18.1934C16.2542 18.6493 15.7519 18.8645 15.0934 18.8645C15.0301 18.8645 14.9625 18.8645 14.8992 18.8603C13.6455 18.7801 12.4805 18.2905 11.6067 17.8726C9.21757 16.716 7.11967 15.0739 5.37634 12.9929C3.93693 11.258 2.97451 9.65401 2.33712 7.93179C1.94455 6.88072 1.80103 6.06182 1.86435 5.28935C1.90656 4.79548 2.09651 4.38603 2.44687 4.03568L3.88628 2.59627C4.09311 2.4021 4.31261 2.29657 4.52789 2.29657C4.79382 2.29657 5.0091 2.45697 5.14418 2.59205C5.1484 2.59627 5.15262 2.60049 5.15684 2.60471C5.41433 2.84532 5.65915 3.09436 5.91664 3.36029C6.0475 3.49537 6.18257 3.63045 6.31765 3.76974L7.47002 4.92211C7.91746 5.36955 7.91746 5.78323 7.47002 6.23067C7.34761 6.35308 7.22942 6.47549 7.107 6.59368C6.75243 6.9567 6.41474 7.29439 6.0475 7.62364C6.03906 7.63208 6.03061 7.63631 6.02639 7.64475C5.66337 8.00777 5.73091 8.36234 5.80689 8.60295C5.81111 8.61561 5.81534 8.62827 5.81956 8.64094C6.11926 9.36697 6.54137 10.0508 7.18298 10.8655L7.18721 10.8697C8.35224 12.3049 9.58059 13.4235 10.9356 14.2804C11.1086 14.3901 11.2859 14.4788 11.4548 14.5632C11.6067 14.6392 11.7503 14.7109 11.8727 14.7869C11.8896 14.7954 11.9064 14.808 11.9233 14.8165C12.0668 14.8882 12.2019 14.922 12.3412 14.922C12.6916 14.922 12.9111 14.7025 12.9828 14.6307L14.4265 13.1871C14.57 13.0436 14.7979 12.8705 15.0638 12.8705C15.3256 12.8705 15.5408 13.0351 15.6717 13.1787C15.6759 13.1829 15.6759 13.1829 15.6801 13.1871L18.006 15.5129C18.4408 15.9435 18.4408 16.3867 18.0102 16.8342Z" fill="white"/>
<path d="M11.5012 4.75753C12.6072 4.94326 13.6118 5.46668 14.4138 6.26869C15.2158 7.07071 15.735 8.07534 15.925 9.18128C15.9714 9.45987 16.212 9.65405 16.4864 9.65405C16.5202 9.65405 16.5497 9.64982 16.5835 9.6456C16.8959 9.59495 17.1027 9.29947 17.052 8.98711C16.8241 7.64901 16.1909 6.4291 15.2243 5.46246C14.2576 4.49582 13.0377 3.86265 11.6996 3.6347C11.3873 3.58405 11.096 3.79089 11.0411 4.09903C10.9862 4.40717 11.1889 4.70687 11.5012 4.75753Z" fill="white"/>
<path d="M20.6695 8.82242C20.2939 6.61899 19.2555 4.61395 17.6599 3.01836C16.0643 1.42277 14.0592 0.384369 11.8558 0.00868772C11.5477 -0.0461871 11.2564 0.16487 11.2015 0.473013C11.1509 0.785377 11.3577 1.07664 11.6701 1.13151C13.6371 1.46498 15.4311 2.39785 16.8579 3.82037C18.2846 5.24712 19.2133 7.0411 19.5467 9.00815C19.5932 9.28675 19.8338 9.48092 20.1081 9.48092C20.1419 9.48092 20.1714 9.4767 20.2052 9.47248C20.5134 9.42604 20.7244 9.13056 20.6695 8.82242Z" fill="white"/>
</svg>
