<svg width="21" height="20" viewBox="0 0 21 20" fill="none" xmlns="http://www.w3.org/2000/svg">
<path d="M10.5502 9.63408C11.8738 9.63408 13.0197 9.15938 13.9563 8.22279C14.8926 7.28636 15.3674 6.14058 15.3674 4.81689C15.3674 3.49365 14.8927 2.34771 13.9561 1.41098C13.0195 0.4747 11.8736 0 10.5502 0C9.22653 0 8.08074 0.4747 7.14431 1.41113C6.20788 2.34756 5.73303 3.49349 5.73303 4.81689C5.73303 6.14058 6.20788 7.28652 7.14431 8.22295C8.08105 9.15922 9.22698 9.63408 10.5502 9.63408ZM7.97317 2.23983C8.69171 1.5213 9.5346 1.17203 10.5502 1.17203C11.5657 1.17203 12.4087 1.5213 13.1274 2.23983C13.846 2.95852 14.1954 3.80157 14.1954 4.81689C14.1954 5.83251 13.846 6.6754 13.1274 7.39409C12.4087 8.11278 11.5657 8.46205 10.5502 8.46205C9.5349 8.46205 8.69201 8.11263 7.97317 7.39409C7.25448 6.67555 6.90506 5.83251 6.90506 4.81689C6.90506 3.80157 7.25448 2.95852 7.97317 2.23983Z" fill="white"/>
<path d="M18.979 15.379C18.952 14.9893 18.8974 14.5642 18.817 14.1153C18.7358 13.663 18.6313 13.2354 18.5061 12.8447C18.3767 12.4408 18.2011 12.0419 17.9837 11.6597C17.7583 11.2629 17.4934 10.9175 17.1962 10.6332C16.8853 10.3358 16.5048 10.0967 16.0647 9.9223C15.6262 9.74881 15.1402 9.66092 14.6203 9.66092C14.4162 9.66092 14.2187 9.74469 13.8374 9.99295C13.6027 10.146 13.3282 10.323 13.0218 10.5188C12.7598 10.6857 12.4049 10.8421 11.9665 10.9837C11.5388 11.1221 11.1046 11.1923 10.6758 11.1923C10.2473 11.1923 9.81307 11.1221 9.38506 10.9837C8.94713 10.8423 8.59206 10.6859 8.33052 10.5189C8.02703 10.325 7.75237 10.148 7.51418 9.9928C7.13317 9.74454 6.93572 9.66077 6.73156 9.66077C6.21154 9.66077 5.7257 9.74881 5.28732 9.92245C4.84756 10.0966 4.46685 10.3357 4.15573 10.6334C3.85849 10.9178 3.5936 11.2631 3.36838 11.6597C3.15124 12.0419 2.97546 12.4406 2.84607 12.8448C2.7211 13.2356 2.61658 13.663 2.5354 14.1153C2.45483 14.5636 2.40036 14.9888 2.37335 15.3794C2.3468 15.7614 2.33337 16.1589 2.33337 16.5605C2.33337 17.6045 2.66525 18.4497 3.3197 19.073C3.96606 19.6881 4.82116 19.9999 5.86135 19.9999H15.4915C16.5313 19.9999 17.3864 19.6881 18.033 19.073C18.6876 18.4501 19.0194 17.6046 19.0194 16.5603C19.0193 16.1573 19.0057 15.7598 18.979 15.379ZM17.2249 18.2238C16.7978 18.6303 16.2307 18.8279 15.4913 18.8279H5.86135C5.12176 18.8279 4.55474 18.6303 4.1278 18.224C3.70895 17.8253 3.5054 17.281 3.5054 16.5605C3.5054 16.1857 3.51776 15.8157 3.54248 15.4605C3.56659 15.112 3.61587 14.7291 3.68896 14.3223C3.76114 13.9206 3.85299 13.5435 3.96225 13.2022C4.06707 12.8749 4.21005 12.5508 4.38736 12.2386C4.55658 11.941 4.75128 11.6858 4.96612 11.4801C5.16708 11.2877 5.42037 11.1302 5.71884 11.0121C5.99487 10.9028 6.30508 10.843 6.64184 10.834C6.68288 10.8558 6.75597 10.8975 6.87438 10.9747C7.11532 11.1317 7.39303 11.3108 7.70003 11.5069C8.0461 11.7276 8.49196 11.9268 9.02465 12.0988C9.56923 12.2749 10.1247 12.3643 10.6759 12.3643C11.2272 12.3643 11.7828 12.2749 12.3271 12.099C12.8602 11.9267 13.3059 11.7276 13.6525 11.5066C13.9667 11.3058 14.2366 11.1319 14.4775 10.9747C14.5959 10.8976 14.669 10.8558 14.7101 10.834C15.047 10.843 15.3572 10.9028 15.6334 11.0121C15.9317 11.1302 16.185 11.2878 16.3859 11.4801C16.6008 11.6856 16.7955 11.9409 16.9647 12.2387C17.1422 12.5508 17.2853 12.875 17.39 13.202C17.4994 13.5438 17.5914 13.9207 17.6634 14.3222C17.7363 14.7297 17.7858 15.1127 17.8099 15.4606V15.4609C17.8348 15.8148 17.8473 16.1846 17.8474 16.5605C17.8473 17.2811 17.6437 17.8253 17.2249 18.2238Z" fill="white"/>
</svg>
