<svg width="21" height="16" viewBox="0 0 21 16" fill="none" xmlns="http://www.w3.org/2000/svg">
<path d="M18.9349 0.968796H2.45056C1.47935 0.968796 0.692749 1.76028 0.692749 2.72661V13.2735C0.692749 14.2456 1.48513 15.0313 2.45056 15.0313H18.9349C19.898 15.0313 20.6927 14.2489 20.6927 13.2735V2.72661C20.6927 1.762 19.9093 0.968796 18.9349 0.968796ZM18.6888 2.14067C18.3296 2.4979 12.1491 8.64587 11.9357 8.85813C11.6037 9.19016 11.1623 9.37298 10.6927 9.37298C10.2232 9.37298 9.78181 9.19012 9.44869 8.85704C9.30517 8.71426 3.19287 2.63419 2.69673 2.14067H18.6888ZM1.86462 13.035V2.96587L6.92861 8.00317L1.86462 13.035ZM2.69748 13.8594L7.75947 8.82962L8.62115 9.68676C9.17451 10.2401 9.91021 10.5449 10.6927 10.5449C11.4753 10.5449 12.211 10.2401 12.7633 9.68786L13.626 8.82962L18.688 13.8594H2.69748ZM19.5209 13.035L14.4569 8.00317L19.5209 2.96587V13.035Z" fill="white"/>
</svg>
