<svg width="51" height="50" viewBox="0 0 51 50" fill="none" xmlns="http://www.w3.org/2000/svg">
<path d="M25.6927 49.9999C39.4999 49.9999 50.6927 38.8071 50.6927 24.9999C50.6927 11.1928 39.4999 -6.10352e-05 25.6927 -6.10352e-05C11.8856 -6.10352e-05 0.692749 11.1928 0.692749 24.9999C0.692749 38.8071 11.8856 49.9999 25.6927 49.9999Z" fill="#3A8BF4"/>
<path d="M31.9776 25.9785H27.5167V42.3214H20.758V25.9785H17.5435V20.235H20.758V16.5183C20.758 13.8605 22.0205 9.69855 27.5769 9.69855L32.5833 9.71949V15.2946H28.9508C28.355 15.2946 27.5171 15.5923 27.5171 16.8601V20.2404H32.5681L31.9776 25.9785Z" fill="white"/>
</svg>
