<svg width="51" height="50" viewBox="0 0 51 50" fill="none" xmlns="http://www.w3.org/2000/svg">
<circle cx="25.6927" cy="24.9999" r="25" fill="white"/>
<path d="M16.4134 28.4769L15.2531 32.8084L11.0123 32.8981C9.74488 30.5474 9.026 27.8579 9.026 24.9998C9.026 22.2361 9.69814 19.6298 10.8895 17.335H10.8905L14.666 18.0271L16.3199 21.78C15.9737 22.7892 15.785 23.8725 15.785 24.9998C15.7852 26.2232 16.0068 27.3954 16.4134 28.4769Z" fill="#FBBB00"/>
<path d="M42.0681 21.8864C42.2595 22.8946 42.3593 23.9358 42.3593 24.9999C42.3593 26.1931 42.2339 27.3571 41.9949 28.4798C41.1836 32.3003 39.0636 35.6363 36.1268 37.9971L36.1259 37.9962L31.3704 37.7536L30.6974 33.5521C32.6461 32.4093 34.169 30.6208 34.9712 28.4798H26.0591V21.8864H35.1012H42.0681Z" fill="#518EF8"/>
<path d="M36.1259 37.9962L36.1268 37.9972C33.2706 40.2929 29.6423 41.6666 25.6927 41.6666C19.3457 41.6666 13.8274 38.119 11.0123 32.8983L16.4134 28.4771C17.8209 32.2334 21.4445 34.9074 25.6927 34.9074C27.5187 34.9074 29.2294 34.4138 30.6973 33.5521L36.1259 37.9962Z" fill="#28B446"/>
<path d="M36.3308 12.1702L30.9315 16.5905C29.4123 15.6409 27.6165 15.0923 25.6925 15.0923C21.3482 15.0923 17.6568 17.889 16.3198 21.7801L10.8903 17.335H10.8894C13.6632 11.987 19.2511 8.33319 25.6925 8.33319C29.7365 8.33319 33.4443 9.77368 36.3308 12.1702Z" fill="#F14336"/>
</svg>
