<svg width="21" height="20" viewBox="0 0 21 20" fill="none" xmlns="http://www.w3.org/2000/svg">
<g clip-path="url(#clip0)">
<path d="M16.3177 20.0001H5.06775C4.03442 20.0001 3.19275 19.1593 3.19275 18.1251V9.37506C3.19275 8.34082 4.03442 7.50006 5.06775 7.50006H16.3177C17.3511 7.50006 18.1927 8.34082 18.1927 9.37506V18.1251C18.1927 19.1593 17.3511 20.0001 16.3177 20.0001ZM5.06775 8.75006C4.72351 8.75006 4.44275 9.03006 4.44275 9.37506V18.1251C4.44275 18.4701 4.72351 18.7501 5.06775 18.7501H16.3177C16.662 18.7501 16.9427 18.4701 16.9427 18.1251V9.37506C16.9427 9.03006 16.662 8.75006 16.3177 8.75006H5.06775Z" fill="white"/>
<path d="M15.0677 8.75006C14.7227 8.75006 14.4427 8.47006 14.4427 8.12506V5.00006C14.4427 2.9325 12.7603 1.25006 10.6927 1.25006C8.62518 1.25006 6.94275 2.9325 6.94275 5.00006V8.12506C6.94275 8.47006 6.66275 8.75006 6.31775 8.75006C5.97275 8.75006 5.69275 8.47006 5.69275 8.12506V5.00006C5.69275 2.24249 7.93518 6.10352e-05 10.6927 6.10352e-05C13.4503 6.10352e-05 15.6927 2.24249 15.6927 5.00006V8.12506C15.6927 8.47006 15.4128 8.75006 15.0677 8.75006Z" fill="white"/>
</g>
<defs>
<clipPath id="clip0">
<rect width="20" height="20" fill="white" transform="translate(0.692749)"/>
</clipPath>
</defs>
</svg>
