<svg width="281" height="30" viewBox="0 0 281 30" fill="none" xmlns="http://www.w3.org/2000/svg">
<path d="M5.21661 9.24329V29.5946H0.692749V0.810856H4.40878L20.6462 21.6082V0.851396H25.2105V29.5946H21.2521L5.21661 9.24329Z" fill="white"/>
<path d="M50.0352 29.5946H45.5921V17.7163C45.5921 15.7973 45.2421 14.3649 44.5419 13.419C43.8418 12.473 42.859 12 41.5934 12C40.7855 12 39.9642 12.2163 39.1295 12.6487C38.3216 13.0811 37.5946 13.6757 36.9483 14.4325C36.3021 15.1622 35.8308 16.0136 35.5346 16.9865V29.5946H31.0915V4.57764e-05H35.5346V12.6487C36.3424 11.1892 37.4465 10.0541 38.8467 9.24329C40.247 8.43248 41.7549 8.02707 43.3706 8.02707C45.1209 8.02707 46.4807 8.43248 47.4501 9.24329C48.4195 10.0271 49.0927 11.0811 49.4697 12.4054C49.8467 13.7027 50.0352 15.1217 50.0352 16.6622V29.5946Z" fill="white"/>
<path d="M53.6575 23.3919C53.6575 22.0406 54.0345 20.8649 54.7885 19.8649C55.5424 18.8379 56.5926 18.0541 57.939 17.5136C59.3123 16.946 60.8876 16.6622 62.6648 16.6622C63.6073 16.6622 64.5632 16.7433 65.5326 16.9055C66.529 17.0406 67.4041 17.2433 68.1581 17.5136V16.1757C68.1581 14.6892 67.7138 13.5271 66.8252 12.6892C65.9366 11.8514 64.6575 11.4325 62.988 11.4325C61.8301 11.4325 60.7126 11.6352 59.6355 12.0406C58.5584 12.446 57.4409 13.0406 56.283 13.8244L54.7885 10.8244C56.1887 9.90545 57.589 9.21626 58.9892 8.7568C60.4164 8.27032 61.9109 8.02707 63.4727 8.02707C66.3001 8.02707 68.5216 8.78383 70.1373 10.2973C71.7799 11.7838 72.6012 13.9054 72.6012 16.6622V24.5676C72.6012 25.0811 72.682 25.446 72.8435 25.6622C73.032 25.8784 73.3417 26 73.7725 26.0271V29.5946C73.3686 29.6757 73.0051 29.7298 72.682 29.7568C72.3588 29.7838 72.0895 29.7973 71.8741 29.7973C70.9047 29.7973 70.1777 29.5676 69.693 29.1082C69.2352 28.6217 68.9659 28.0811 68.8851 27.4865L68.764 26.2703C67.8484 27.4595 66.6771 28.3784 65.2499 29.0271C63.8227 29.6757 62.3821 30 60.928 30C59.5278 30 58.2756 29.7163 57.1716 29.1487C56.0675 28.5541 55.2059 27.7568 54.5865 26.7568C53.9672 25.7568 53.6575 24.6352 53.6575 23.3919ZM67.1079 24.6892C67.808 23.9865 68.1581 23.3244 68.1581 22.7027V20.2703C66.5694 19.6757 64.9537 19.3784 63.3111 19.3784C61.6954 19.3784 60.376 19.7163 59.3527 20.3919C58.3564 21.0406 57.8582 21.919 57.8582 23.0271C57.8582 23.946 58.2218 24.7973 58.9488 25.5811C59.7028 26.3379 60.7799 26.7163 62.1801 26.7163C63.1226 26.7163 64.0382 26.5271 64.9268 26.1487C65.8154 25.7703 66.5424 25.2838 67.1079 24.6892Z" fill="white"/>
<path d="M95.4988 4.82437H85.9664V29.5946H81.4021V4.82437H71.8293V0.810856H95.4988V4.82437Z" fill="white"/>
<path d="M117.723 29.5946H113.28V17.7163C113.28 15.7973 112.93 14.3649 112.229 13.419C111.529 12.473 110.546 12 109.281 12C108.473 12 107.652 12.2163 106.817 12.6487C106.009 13.0811 105.282 13.6757 104.636 14.4325C103.99 15.1622 103.518 16.0136 103.222 16.9865V29.5946H98.779V4.57764e-05H103.222V12.6487C104.03 11.1892 105.134 10.0541 106.534 9.24329C107.934 8.43248 109.442 8.02707 111.058 8.02707C112.808 8.02707 114.168 8.43248 115.138 9.24329C116.107 10.0271 116.78 11.0811 117.157 12.4054C117.534 13.7027 117.723 15.1217 117.723 16.6622V29.5946Z" fill="white"/>
<path d="M122.678 21.3649V8.39194H127.121V20.473C127.121 24.2838 128.467 26.1892 131.16 26.1892C132.426 26.1892 133.624 25.7973 134.755 25.0136C135.886 24.2027 136.761 23.0676 137.38 21.6082V8.39194H141.824V24.5676C141.824 25.0811 141.918 25.446 142.106 25.6622C142.295 25.8784 142.604 26 143.035 26.0271V29.5946C142.578 29.6757 142.201 29.7298 141.904 29.7568C141.608 29.7838 141.325 29.7973 141.056 29.7973C140.248 29.7973 139.575 29.5811 139.037 29.1487C138.498 28.7163 138.188 28.1352 138.108 27.4054L138.027 25.2973C137.084 26.8379 135.859 28.0136 134.351 28.8244C132.843 29.6082 131.187 30 129.383 30C127.175 30 125.505 29.2703 124.374 27.8109C123.243 26.3514 122.678 24.2027 122.678 21.3649Z" fill="white"/>
<path d="M156.986 30C154.777 30 152.852 29.5 151.21 28.5C149.594 27.473 148.342 26.1352 147.453 24.4865C146.565 22.8109 146.12 20.9865 146.12 19.0136C146.12 17.0406 146.565 15.2298 147.453 13.5811C148.369 11.9055 149.634 10.5676 151.25 9.56761C152.893 8.54059 154.804 8.02707 156.986 8.02707C159.167 8.02707 161.065 8.54059 162.681 9.56761C164.323 10.5676 165.589 11.9055 166.478 13.5811C167.393 15.2298 167.851 17.0406 167.851 19.0136C167.851 20.9865 167.407 22.8109 166.518 24.4865C165.629 26.1352 164.364 27.473 162.721 28.5C161.105 29.5 159.194 30 156.986 30ZM150.684 19.0541C150.684 20.4055 150.967 21.6217 151.533 22.7027C152.098 23.7838 152.852 24.6352 153.795 25.2568C154.737 25.8784 155.801 26.1892 156.986 26.1892C158.143 26.1892 159.194 25.8784 160.136 25.2568C161.106 24.6082 161.873 23.7433 162.438 22.6622C163.004 21.5811 163.287 20.3649 163.287 19.0136C163.287 17.6622 163.004 16.446 162.438 15.3649C161.873 14.2838 161.106 13.4325 160.136 12.8109C159.194 12.1622 158.143 11.8379 156.986 11.8379C155.828 11.8379 154.764 12.1622 153.795 12.8109C152.852 13.4325 152.098 14.2973 151.533 15.4055C150.967 16.4865 150.684 17.7027 150.684 19.0541Z" fill="white"/>
<path d="M181.364 30C179.183 30 177.271 29.5 175.629 28.5C173.986 27.473 172.707 26.1217 171.792 24.446C170.876 22.7703 170.418 20.946 170.418 18.973C170.418 17 170.863 15.1892 171.751 13.5406C172.667 11.8649 173.932 10.5271 175.548 9.52707C177.191 8.52707 179.129 8.02707 181.364 8.02707C183.546 8.02707 185.417 8.51356 186.979 9.48653C188.568 10.4325 189.752 11.7027 190.533 13.2973L186.211 14.6757C185.727 13.7838 185.04 13.0946 184.151 12.6082C183.29 12.0946 182.334 11.8379 181.284 11.8379C180.099 11.8379 179.022 12.1487 178.052 12.7703C177.11 13.3649 176.356 14.2027 175.79 15.2838C175.252 16.3649 174.983 17.5946 174.983 18.973C174.983 20.3514 175.265 21.5811 175.831 22.6622C176.423 23.7433 177.191 24.6082 178.133 25.2568C179.102 25.8784 180.166 26.1892 181.324 26.1892C182.401 26.1892 183.424 25.9054 184.394 25.3379C185.363 24.7703 186.009 24.0811 186.333 23.2703L190.695 24.5676C189.995 26.1622 188.823 27.473 187.181 28.5C185.538 29.5 183.599 30 181.364 30Z" fill="white"/>
<path d="M216.888 29.7973C215.003 29.7973 213.239 29.419 211.597 28.6622C209.954 27.9054 208.5 26.8649 207.234 25.5406C205.996 24.1892 205.026 22.6217 204.326 20.8379C203.626 19.0541 203.276 17.1217 203.276 15.0406C203.276 13.0676 203.626 11.2163 204.326 9.48653C205.026 7.72977 206.009 6.18923 207.275 4.86491C208.54 3.54059 210.021 2.50004 211.718 1.74329C213.414 0.986532 215.259 0.608153 217.251 0.608153C219.917 0.608153 222.22 1.18923 224.158 2.3514C226.097 3.48653 227.551 5.00004 228.521 6.89194L224.36 9.97302C223.633 8.56761 222.61 7.48653 221.291 6.72978C219.998 5.94599 218.584 5.5541 217.049 5.5541C215.434 5.5541 214.007 6.00004 212.768 6.89194C211.556 7.78383 210.6 8.95951 209.9 10.419C209.227 11.8784 208.89 13.473 208.89 15.2027C208.89 17.0136 209.254 18.6487 209.981 20.1082C210.708 21.5676 211.704 22.7298 212.97 23.5946C214.262 24.4325 215.73 24.8514 217.373 24.8514C220.146 24.8514 222.65 23.5406 224.885 20.919V18.8919H219.109V14.7973H229.49V29.5946H224.885V26.3514C222.57 28.6487 219.904 29.7973 216.888 29.7973Z" fill="white"/>
<path d="M234.24 29.5946V0.810856H246.398C247.718 0.810856 248.93 1.08113 250.034 1.62167C251.165 2.16221 252.134 2.89194 252.942 3.81086C253.75 4.72977 254.382 5.7568 254.84 6.89194C255.298 8.02707 255.527 9.18923 255.527 10.3784C255.527 12 255.15 13.5406 254.396 15C253.642 16.4595 252.592 17.6487 251.245 18.5676C249.926 19.4865 248.378 19.946 246.6 19.946H239.815V29.5946H234.24ZM239.815 15.0406H246.277C247.3 15.0406 248.149 14.6217 248.822 13.7838C249.522 12.919 249.872 11.7838 249.872 10.3784C249.872 8.89194 249.482 7.74329 248.701 6.93248C247.92 6.12167 247.031 5.71626 246.035 5.71626H239.815V15.0406Z" fill="white"/>
<path d="M259.406 29.5946V0.810856H271.564C272.884 0.810856 274.095 1.08113 275.199 1.62167C276.33 2.16221 277.3 2.89194 278.108 3.81086C278.915 4.72977 279.548 5.7568 280.006 6.89194C280.464 8.02707 280.693 9.18923 280.693 10.3784C280.693 12 280.316 13.5406 279.562 15C278.808 16.4595 277.758 17.6487 276.411 18.5676C275.092 19.4865 273.543 19.946 271.766 19.946H264.98V29.5946H259.406ZM264.98 15.0406H271.443C272.466 15.0406 273.315 14.6217 273.988 13.7838C274.688 12.919 275.038 11.7838 275.038 10.3784C275.038 8.89194 274.647 7.74329 273.867 6.93248C273.086 6.12167 272.197 5.71626 271.201 5.71626H264.98V15.0406Z" fill="white"/>
</svg>
