<svg width="51" height="50" viewBox="0 0 51 50" fill="none" xmlns="http://www.w3.org/2000/svg">
<path d="M25.6927 49.9999C39.4999 49.9999 50.6927 38.8071 50.6927 24.9999C50.6927 11.1928 39.4999 -6.10352e-05 25.6927 -6.10352e-05C11.8856 -6.10352e-05 0.692749 11.1928 0.692749 24.9999C0.692749 38.8071 11.8856 49.9999 25.6927 49.9999Z" fill="#3A8BF4"/>
<path d="M14.0377 28.426C15.5272 28.426 16.9278 28.4161 18.3187 28.426C19.0979 28.4359 19.522 28.7623 19.601 29.3854C19.6897 30.1668 19.236 30.691 18.3877 30.7009C16.7898 30.7207 15.2017 30.7108 13.6037 30.7108C13.1401 30.7108 12.6864 30.7306 12.2228 30.7009C11.6507 30.6712 11.0884 30.5525 10.8221 29.9591C10.5459 29.3656 10.7432 28.8315 11.118 28.3469C12.6371 26.4083 14.166 24.4598 15.6949 22.5211C15.7836 22.4025 15.8724 22.2838 15.9612 22.175C15.8724 22.0068 15.7245 22.0859 15.6061 22.0859C14.5408 22.0761 13.4656 22.0859 12.4003 22.0761C12.1537 22.0761 11.9071 22.0563 11.6704 21.9969C11.1772 21.8683 10.8714 21.4727 10.8714 20.9979C10.8714 20.5232 11.1575 20.1177 11.6507 19.9792C11.8874 19.91 12.134 19.8902 12.3806 19.8902C14.1364 19.8803 15.902 19.8803 17.6578 19.8902C17.9734 19.8902 18.2792 19.9001 18.585 19.999C19.2557 20.2265 19.5418 20.8496 19.2754 21.5024C19.0387 22.0662 18.6639 22.5508 18.2891 23.0355C16.987 24.6675 15.685 26.3093 14.3928 27.9512C14.2942 28.0798 14.1955 28.2084 14.0377 28.426Z" fill="white"/>
<path d="M25.4798 23.2137C25.7165 22.9071 25.9631 22.6203 26.3675 22.5411C27.1468 22.3829 27.8767 22.8873 27.8866 23.6786C27.9162 25.6568 27.9063 27.6349 27.8866 29.6131C27.8866 30.1571 27.5512 30.5626 27.0679 30.7308C26.555 30.9088 26.0322 30.7802 25.6869 30.345C25.5193 30.1373 25.4502 30.0978 25.2135 30.2857C24.3159 31.0176 23.2999 31.1462 22.205 30.7901C20.4492 30.2165 19.7292 28.8416 19.5319 27.1602C19.3247 25.3502 19.9264 23.8072 21.5342 22.8577C22.8856 22.0763 24.2468 22.1356 25.4798 23.2137ZM21.988 26.8338C21.9978 27.1701 22.1063 27.6349 22.4023 28.0306C23.0434 28.8911 24.3553 28.8911 24.9866 28.0306C25.539 27.2789 25.539 26.0425 24.9866 25.2908C24.6907 24.8952 24.306 24.6875 23.8128 24.6578C22.7376 24.5984 21.9781 25.4392 21.988 26.8338Z" fill="white"/>
<path d="M32.3155 26.893C32.2366 24.351 33.9036 22.452 36.261 22.3827C38.7763 22.3036 40.611 23.9949 40.6899 26.4677C40.7688 28.97 39.2399 30.7405 36.8825 30.9779C34.3179 31.2252 32.276 29.3558 32.3155 26.893ZM34.7913 26.6457C34.7913 27.1501 34.9097 27.6249 35.2155 28.0304C35.8369 28.8711 37.1389 28.881 37.7702 28.0502C38.3423 27.2985 38.3423 26.0325 37.7801 25.2808C37.4842 24.8851 37.0896 24.6873 36.6063 24.6576C35.541 24.5983 34.8012 25.4192 34.7913 26.6457Z" fill="white"/>
<path d="M31.4475 24.9248C31.4475 26.4579 31.4574 27.9909 31.4475 29.524C31.4376 30.4043 30.6683 30.9978 29.8397 30.7802C29.3465 30.6516 28.9717 30.1274 28.9717 29.5042C28.9717 26.8832 28.9717 24.2621 28.9717 21.641C28.9717 21.1761 28.9618 20.7212 28.9717 20.2563C28.9815 19.4947 29.4649 19.0001 30.1948 19.0001C30.9444 18.9903 31.4475 19.4848 31.4475 20.2761C31.4574 21.8289 31.4475 23.3719 31.4475 24.9248Z" fill="white"/>
</svg>
