<svg width="31" height="31" viewBox="0 0 31 31" fill="none" xmlns="http://www.w3.org/2000/svg">
<path d="M18.464 15.1714C19.8795 13.7985 20.6962 11.8843 20.6962 9.84165C20.6962 5.79844 17.4995 2.50891 13.5703 2.50891C9.6412 2.50891 6.44448 5.79844 6.44448 9.84165C6.44448 11.8843 7.26121 13.7985 8.67665 15.1714C7.18453 15.9724 5.90012 17.129 4.91841 18.5656C3.66338 20.4017 3 22.563 3 24.8153V26.7482C3 27.1682 3.33112 27.5089 3.73929 27.5089H23.4014C23.8096 27.5089 24.1407 27.1682 24.1407 26.7482V24.8153C24.1407 22.563 23.4773 20.4017 22.2223 18.5656C21.2404 17.129 19.9561 15.9724 18.464 15.1714ZM22.6619 25.9872H4.47877V24.8153C4.47877 20.9489 6.8393 17.4317 10.3528 16.0631C10.6132 15.9616 10.7963 15.7182 10.826 15.4333C10.856 15.1485 10.7278 14.8703 10.4945 14.7139C8.88436 13.635 7.92325 11.8136 7.92325 9.84165C7.92325 6.6373 10.4566 4.03041 13.5703 4.03041C16.6841 4.03041 19.2174 6.6375 19.2174 9.84165C19.2174 11.8138 18.2561 13.6352 16.6461 14.7139C16.4129 14.8703 16.2845 15.1485 16.3144 15.4334C16.3444 15.7184 16.5273 15.9618 16.7878 16.0631C20.3014 17.4317 22.6619 20.9489 22.6619 24.8155V25.9872Z" fill="#1175BB"/>
<path d="M14.6541 11.0603C14.0565 11.6579 13.0841 11.6579 12.4866 11.0603C12.1978 10.7716 11.7297 10.7716 11.441 11.0603C11.1522 11.3491 11.1522 11.8172 11.441 12.1059C12.028 12.693 12.7992 12.9866 13.5703 12.9866C14.3415 12.9866 15.1126 12.693 15.6997 12.1059C15.9885 11.8174 15.9885 11.3491 15.6997 11.0603C15.4109 10.7716 14.9429 10.7716 14.6541 11.0603Z" fill="#1175BB"/>
<path d="M27.2607 10.434H26.0072V9.18064C26.0072 8.77228 25.6761 8.44116 25.2677 8.44116C24.8594 8.44116 24.5284 8.77228 24.5284 9.18064V10.434H23.2747C22.8666 10.434 22.5354 10.7651 22.5354 11.1734C22.5354 11.5818 22.8666 11.9127 23.2747 11.9127H24.5284V13.1664C24.5284 13.5746 24.8594 13.9057 25.2677 13.9057C25.6761 13.9057 26.0072 13.5746 26.0072 13.1664V11.9127H27.2607C27.6689 11.9127 28 11.5818 28 11.1734C28 10.7651 27.6689 10.434 27.2607 10.434Z" fill="#1175BB"/>
</svg>
