<svg width="16" height="20" viewBox="0 0 16 20" fill="none" xmlns="http://www.w3.org/2000/svg">
<path d="M7.59637 0C5.60794 0.00223323 3.70158 0.793127 2.29554 2.19917C0.889501 3.6052 0.0986077 5.51156 0.0963745 7.5C0.0963745 12.7844 6.72492 19.4737 7.0071 19.7559C7.16442 19.9103 7.376 19.9967 7.59637 19.9967C7.81675 19.9967 8.02833 19.9103 8.18565 19.7559C8.46783 19.4737 15.0964 12.7844 15.0964 7.5C15.0941 5.51156 14.3032 3.6052 12.8972 2.19917C11.4912 0.793127 9.58481 0.00223323 7.59637 0V0ZM7.59637 12.5C6.60747 12.5 5.64077 12.2068 4.81852 11.6573C3.99628 11.1079 3.35541 10.327 2.97698 9.41342C2.59854 8.49979 2.49952 7.49445 2.69245 6.52455C2.88537 5.55464 3.36158 4.66373 4.06084 3.96447C4.7601 3.2652 5.65102 2.789 6.62092 2.59607C7.59083 2.40315 8.59616 2.50216 9.50979 2.8806C10.4234 3.25904 11.2043 3.8999 11.7537 4.72215C12.3031 5.54439 12.5964 6.51109 12.5964 7.5C12.5964 8.82608 12.0696 10.0979 11.1319 11.0355C10.1942 11.9732 8.92246 12.5 7.59637 12.5Z" fill="#1175BB"/>
</svg>
