<svg width="21" height="20" viewBox="0 0 21 20" fill="none" xmlns="http://www.w3.org/2000/svg">
<path d="M4.98217 12.3893C5.39162 11.963 5.88549 11.735 6.40891 11.735C6.92811 11.735 7.42621 11.9587 7.85254 12.3851L9.18642 13.7147C9.29617 13.6556 9.40592 13.6008 9.51145 13.5459C9.66341 13.4699 9.80693 13.3982 9.92934 13.3222C11.1788 12.5286 12.3143 11.4944 13.4033 10.1563C13.931 9.48938 14.2856 8.92797 14.543 8.35812C14.1969 8.04153 13.8761 7.71229 13.5637 7.3957C13.4455 7.27751 13.3274 7.1551 13.2092 7.0369C12.3227 6.15046 12.3227 5.00232 13.2092 4.11588L14.3615 2.96351C14.4924 2.83265 14.6275 2.69758 14.7541 2.5625C15.0074 2.30079 15.2733 2.03064 15.5477 1.77737C15.9571 1.37214 16.4468 1.15686 16.9618 1.15686C17.4767 1.15686 17.9748 1.37214 18.3969 1.77737C18.4012 1.78159 18.4012 1.78159 18.4054 1.78581L19.8406 3.23366C20.3809 3.77397 20.689 4.43246 20.7566 5.19649C20.8579 6.42906 20.4948 7.57721 20.2163 8.32857C19.5324 10.1732 18.5109 11.8828 16.9871 13.7147C15.1382 15.9224 12.9137 17.6657 10.3726 18.8941C9.4017 19.3542 8.10581 19.8987 6.65796 19.9916C6.56931 19.9958 6.47645 20 6.39203 20C5.41694 20 4.59804 19.6497 3.95643 18.9532C3.95221 18.9447 3.94377 18.9405 3.93955 18.9321C3.72005 18.6661 3.46678 18.4255 3.20085 18.168C3.01934 17.995 2.83361 17.8135 2.6521 17.6235C2.23421 17.1887 2.01471 16.6822 2.01471 16.163C2.01471 15.6396 2.23843 15.1373 2.66476 14.7152L4.98217 12.3893ZM3.471 16.8342C3.47522 16.8342 3.47522 16.8384 3.471 16.8342C3.63562 17.0114 3.80447 17.1719 3.98598 17.3491C4.26035 17.6109 4.53895 17.8852 4.80066 18.1934C5.22699 18.6493 5.72931 18.8645 6.38781 18.8645C6.45112 18.8645 6.51866 18.8645 6.58198 18.8603C7.83566 18.7801 9.00069 18.2905 9.87447 17.8726C12.2636 16.716 14.3615 15.0739 16.1049 12.9929C17.5443 11.258 18.5067 9.65401 19.1441 7.93179C19.5366 6.88072 19.6802 6.06182 19.6168 5.28935C19.5746 4.79548 19.3847 4.38603 19.0343 4.03568L17.5949 2.59627C17.3881 2.4021 17.1686 2.29657 16.9533 2.29657C16.6874 2.29657 16.4721 2.45697 16.337 2.59205C16.3328 2.59627 16.3286 2.60049 16.3244 2.60471C16.0669 2.84532 15.822 3.09436 15.5646 3.36029C15.4337 3.49537 15.2986 3.63045 15.1635 3.76974L14.0112 4.92211C13.5637 5.36955 13.5637 5.78323 14.0112 6.23067C14.1336 6.35308 14.2518 6.47549 14.3742 6.59368C14.7288 6.9567 15.0665 7.29439 15.4337 7.62364C15.4421 7.63208 15.4506 7.63631 15.4548 7.64475C15.8178 8.00777 15.7503 8.36234 15.6743 8.60295C15.6701 8.61561 15.6659 8.62827 15.6616 8.64094C15.3619 9.36697 14.9398 10.0508 14.2982 10.8655L14.294 10.8697C13.129 12.3049 11.9006 13.4235 10.5456 14.2804C10.3726 14.3901 10.1953 14.4788 10.0264 14.5632C9.87447 14.6392 9.73095 14.7109 9.60853 14.7869C9.59165 14.7954 9.57477 14.808 9.55788 14.8165C9.41436 14.8882 9.27929 14.922 9.13999 14.922C8.78963 14.922 8.57013 14.7025 8.49837 14.6307L7.05475 13.1871C6.91123 13.0436 6.68329 12.8705 6.41735 12.8705C6.15564 12.8705 5.94037 13.0351 5.80951 13.1787C5.80529 13.1829 5.80529 13.1829 5.80107 13.1871L3.47522 15.5129C3.04045 15.9435 3.04045 16.3867 3.471 16.8342Z" fill="white"/>
<path d="M9.97991 4.75747C8.87398 4.9432 7.86935 5.46662 7.06733 6.26863C6.26532 7.07065 5.74612 8.07528 5.55617 9.18122C5.50974 9.45981 5.26913 9.65398 4.99476 9.65398C4.96099 9.65398 4.93144 9.64976 4.89767 9.64554C4.58531 9.59489 4.37847 9.29941 4.42913 8.98704C4.65707 7.64894 5.29024 6.42904 6.25688 5.4624C7.22351 4.49576 8.44342 3.86258 9.78152 3.63464C10.0939 3.58399 10.3851 3.79083 10.44 4.09897C10.4949 4.40711 10.2923 4.70681 9.97991 4.75747Z" fill="white"/>
<path d="M0.811718 8.82242C1.1874 6.61899 2.2258 4.61395 3.82139 3.01836C5.41698 1.42277 7.42202 0.384369 9.62545 0.00868772C9.9336 -0.0461871 10.2249 0.16487 10.2797 0.473013C10.3304 0.785377 10.1235 1.07664 9.81118 1.13151C7.84413 1.46498 6.05015 2.39785 4.62341 3.82037C3.19666 5.24712 2.26801 7.0411 1.93454 9.00815C1.88811 9.28675 1.6475 9.48092 1.37313 9.48092C1.33936 9.48092 1.30981 9.4767 1.27604 9.47248C0.9679 9.42604 0.756844 9.13056 0.811718 8.82242Z" fill="white"/>
</svg>
