<svg width="31" height="31" viewBox="0 0 31 31" fill="none" xmlns="http://www.w3.org/2000/svg">
<path d="M15.558 2.50891C15.5511 2.51561 15.5375 2.51561 15.517 2.51561C8.61391 2.51561 3 8.02826 3 14.8069C3 17.5733 3.9618 20.2592 5.72169 22.4228L3.90041 26.5757C3.75034 26.9173 3.91405 27.3125 4.25511 27.4532C4.3779 27.5067 4.51432 27.5201 4.64393 27.5L11.322 26.3479C12.6589 26.8235 14.0641 27.0647 15.4829 27.058C22.3861 27.058 28 21.5453 28 14.7667C28.0136 8.00817 22.4406 2.51561 15.558 2.50891ZM15.4898 25.725C14.1732 25.725 12.8704 25.4906 11.6357 25.0351C11.5198 24.9882 11.397 24.9815 11.2742 25.0016L5.65348 25.9661L7.14051 22.5701C7.24283 22.3357 7.20191 22.0611 7.03137 21.8668C6.22646 20.9492 5.58526 19.9042 5.13506 18.7722C4.63028 17.5063 4.37108 16.1599 4.37108 14.8002C4.37108 8.75837 9.37789 3.84856 15.5239 3.84856C21.6562 3.83516 26.6357 8.70478 26.6425 14.7265C26.6425 14.7399 26.6425 14.7533 26.6425 14.7667C26.6425 20.8152 21.6357 25.725 15.4898 25.725Z" fill="#1175BB"/>
<path d="M15.558 2.50891C15.5511 2.51561 15.5375 2.51561 15.517 2.51561C8.61391 2.51561 3 8.02826 3 14.8069C3 17.5733 3.9618 20.2592 5.72169 22.4228L3.90041 26.5757C3.75034 26.9173 3.91405 27.3125 4.25511 27.4532C4.3779 27.5067 4.51432 27.5201 4.64393 27.5L11.322 26.3479C12.6589 26.8235 14.0641 27.0647 15.4829 27.058C22.3861 27.058 28 21.5453 28 14.7667C28.0136 8.00817 22.4406 2.51561 15.558 2.50891ZM15.4898 25.725C14.1732 25.725 12.8704 25.4906 11.6357 25.0351C11.5198 24.9882 11.397 24.9815 11.2742 25.0016L5.65348 25.9661L7.14051 22.5701C7.24283 22.3357 7.20191 22.0611 7.03137 21.8668C6.22646 20.9492 5.58526 19.9042 5.13506 18.7722C4.63028 17.5063 4.37108 16.1599 4.37108 14.8002C4.37108 8.75837 9.37789 3.84856 15.5239 3.84856C21.6562 3.83516 26.6357 8.70478 26.6425 14.7265C26.6425 14.7399 26.6425 14.7533 26.6425 14.7667C26.6425 20.8152 21.6357 25.725 15.4898 25.725Z" fill="#1175BB"/>
<path d="M14.857 12.1956H10.5165C10.0744 12.1956 9.71272 12.5574 9.71272 12.9994C9.71272 13.4415 10.0744 13.8032 10.5165 13.8032H14.857C15.2991 13.8032 15.6608 13.4415 15.6608 12.9994C15.6608 12.5574 15.2991 12.1956 14.857 12.1956Z" fill="#1175BB"/>
<path d="M20.4835 16.2146H10.5165C10.0744 16.2146 9.71272 16.5763 9.71272 17.0184C9.71272 17.4605 10.0744 17.8222 10.5165 17.8222H20.4835C20.9256 17.8222 21.2873 17.4605 21.2873 17.0184C21.2873 16.5763 20.9256 16.2146 20.4835 16.2146Z" fill="#1175BB"/>
</svg>
