<svg width="21" height="21" viewBox="0 0 21 21" fill="none" xmlns="http://www.w3.org/2000/svg">
<g clip-path="url(#clip0)">
<path d="M20.0247 3.23421C19.7305 2.93948 19.2531 2.93897 18.9589 3.23296L9.91621 12.2518L6.65363 8.70831C6.37171 8.4023 5.89507 8.38245 5.58855 8.66433C5.28226 8.94624 5.26265 9.42312 5.54457 9.7294L9.33855 13.8498C9.47749 14.0008 9.67195 14.0885 9.87699 14.0927C9.88249 14.093 9.88781 14.093 9.89308 14.093C10.0923 14.093 10.284 14.0138 10.4252 13.8731L20.0232 4.30026C20.3182 4.00632 20.3187 3.52894 20.0247 3.23421Z" fill="#1175BB"/>
<path d="M19.8428 9.74621C19.4265 9.74621 19.0891 10.0836 19.0891 10.5C19.0891 15.1829 15.2795 18.9925 10.5966 18.9925C5.91396 18.9925 2.10416 15.1829 2.10416 10.5C2.10416 5.81734 5.91396 2.00754 10.5966 2.00754C11.0129 2.00754 11.3504 1.67012 11.3504 1.25379C11.3504 0.837422 11.0129 0.5 10.5966 0.5C5.08256 0.5 0.596619 4.98594 0.596619 10.5C0.596619 16.0138 5.08256 20.5 10.5966 20.5C16.1104 20.5 20.5966 16.0138 20.5966 10.5C20.5966 10.0837 20.2592 9.74621 19.8428 9.74621Z" fill="#1175BB"/>
</g>
<defs>
<clipPath id="clip0">
<rect width="20" height="20" fill="white" transform="translate(0.596619 0.5)"/>
</clipPath>
</defs>
</svg>
