<svg width="31" height="31" viewBox="0 0 31 31" fill="none" xmlns="http://www.w3.org/2000/svg">
<path d="M27.3286 13.3827C27.3279 13.3821 27.3273 13.3814 27.3267 13.3808L17.1277 3.18316C16.6929 2.74828 16.1149 2.50891 15.5001 2.50891C14.8853 2.50891 14.3074 2.74828 13.8724 3.18316L3.67873 13.3756C3.6753 13.3791 3.67167 13.3827 3.66843 13.3861C2.7757 14.2839 2.77722 15.7406 3.67282 16.6361C4.08198 17.0454 4.6222 17.2823 5.19999 17.3073C5.22365 17.3096 5.2473 17.3107 5.27114 17.3107H5.67745V24.8154C5.67745 26.3006 6.88607 27.5089 8.37147 27.5089H12.3617C12.7663 27.5089 13.0942 27.1808 13.0942 26.7765V20.8927C13.0942 20.215 13.6456 19.6638 14.3234 19.6638H16.6769C17.3547 19.6638 17.9059 20.215 17.9059 20.8927V26.7765C17.9059 27.1808 18.2338 27.5089 18.6384 27.5089H22.6286C24.1142 27.5089 25.3226 26.3006 25.3226 24.8154V17.3107H25.6996C26.3142 17.3107 26.8922 17.0713 27.3273 16.6363C28.2238 15.7394 28.2242 14.2801 27.3286 13.3827ZM26.2913 15.6006C26.1332 15.7587 25.9229 15.8459 25.6996 15.8459H24.5902C24.1856 15.8459 23.8577 16.1737 23.8577 16.5783V24.8154C23.8577 25.4928 23.3064 26.0441 22.6286 26.0441H19.3709V20.8927C19.3709 19.4074 18.1625 18.199 16.6769 18.199H14.3234C12.8378 18.199 11.6292 19.4074 11.6292 20.8927V26.0441H8.37147C7.69391 26.0441 7.14244 25.4928 7.14244 24.8154V16.5783C7.14244 16.1737 6.81454 15.8459 6.40995 15.8459H5.3196C5.30815 15.8451 5.2969 15.8445 5.28526 15.8443C5.06704 15.8405 4.86236 15.7539 4.70899 15.6004C4.3828 15.2742 4.3828 14.7434 4.70899 14.4171C4.70918 14.4171 4.70918 14.4169 4.70937 14.4167L4.70995 14.4161L14.9086 4.21885C15.0666 4.06073 15.2766 3.97375 15.5001 3.97375C15.7235 3.97375 15.9335 4.06073 16.0917 4.21885L26.2881 14.414C26.2896 14.4155 26.2913 14.4171 26.2928 14.4186C26.6173 14.7453 26.6167 15.275 26.2913 15.6006Z" fill="#1175BB"/>
</svg>
