<svg width="51" height="50" viewBox="0 0 51 50" fill="none" xmlns="http://www.w3.org/2000/svg">
<path d="M50.5964 21.6854V28.3146C50.5964 30.3371 49.1357 32.0225 47.3379 32.0225H32.6188V46.7416C32.6188 48.5393 30.9335 50 28.911 50H22.2818C20.2593 50 18.5739 48.5393 18.5739 46.7416V32.0225H3.8548C2.05705 32.0225 0.596375 30.3371 0.596375 28.3146V21.6854C0.596375 19.6629 2.05705 17.9775 3.8548 17.9775H18.5739V3.25842C18.5739 1.46067 20.2593 -7.62939e-06 22.2818 -7.62939e-06H28.911C30.9335 -7.62939e-06 32.6188 1.46067 32.6188 3.25842V17.9775H47.3379C49.1357 17.9775 50.5964 19.6629 50.5964 21.6854Z" fill="#1175BB"/>
<path fill-rule="evenodd" clip-rule="evenodd" d="M28.2368 27.8652L29.2481 20.6742C29.2481 20.2247 29.9222 20.2247 30.0346 20.6742L30.9335 25.2809H32.6188C32.8436 25.2809 32.9559 25.3933 32.9559 25.618L33.4054 27.0786L34.6413 23.7079C34.7537 23.3708 35.2031 23.3708 35.3155 23.5955L36.3267 25.2809H50.5964V26.0674C50.0346 26.0674 36.3267 26.0674 36.2144 26.0674C35.7649 26.0674 35.7649 25.8427 35.0908 24.7191L33.7424 28.427C33.6301 28.764 33.0683 28.764 33.0683 28.427L32.3941 26.0674H30.5964C30.3717 26.0674 30.2593 25.9551 30.1469 25.7303L29.5851 23.0337L28.4615 31.0112C28.4615 31.4607 27.7874 31.4607 27.675 31.0112L27.1132 25.9551C26.4391 25.9551 26.5514 25.9551 26.102 24.6067C25.9896 25.2809 25.9896 25.9551 25.5402 25.9551H23.0683C22.6188 25.9551 22.6188 25.5056 22.5065 24.9438L21.72 27.6404C21.6076 27.9775 21.0458 27.9775 20.9335 27.6404L19.2481 19.3258L17.5627 30.6742C17.4503 31.1236 16.8885 31.1236 16.7761 30.6742L15.6526 26.0674L0.596375 25.9551V25.1685C1.04581 25.1685 16.102 25.2809 16.4391 25.3933C16.7761 25.5056 17.2256 28.0899 17.3379 28.5393L19.0233 17.0786C19.1357 16.6292 19.6975 16.6292 19.8099 17.0786L21.6076 26.0674L22.3941 23.3708C22.5065 23.0337 23.0683 23.0337 23.1806 23.3708L23.6301 25.1685H25.3155L25.6526 22.809C25.7649 22.3595 26.3267 22.3595 26.4391 22.809L27.1132 25.1685C27.3379 25.1685 27.7874 25.0562 27.8997 25.5056L28.2368 27.8652Z" fill="white"/>
<path fill-rule="evenodd" clip-rule="evenodd" d="M28.2368 27.8652L29.2481 20.6741C29.2481 20.2247 29.9222 20.2247 30.0346 20.6741L30.9335 25.2809H32.6188C32.8436 25.2809 32.9559 25.3932 32.9559 25.618L33.4054 27.0786L34.6413 23.7079C34.7537 23.3708 35.2031 23.3708 35.3155 23.5955L36.3267 25.2809H50.5964V21.6854C50.5964 19.5506 49.1357 17.9775 47.3379 17.9775H32.6188V3.25842C32.6188 1.46067 30.9335 -7.62939e-06 28.911 -7.62939e-06H22.2818C20.2593 -7.62939e-06 18.5739 1.46067 18.5739 3.25842V17.9775H3.8548C2.05705 17.9775 0.596375 19.6629 0.596375 21.6854V25.1685C1.04581 25.1685 16.102 25.2809 16.4391 25.3933C16.7761 25.5056 17.2256 28.0899 17.3379 28.5393L19.0233 17.0786C19.1357 16.6292 19.6975 16.6292 19.8099 17.0786L21.6076 26.0674L22.3941 23.3708C22.5065 23.0337 23.0683 23.0337 23.1806 23.3708L23.6301 25.1685H25.3155L25.6526 22.809C25.7649 22.3595 26.3267 22.3595 26.4391 22.809L27.1132 25.1685C27.3379 25.1685 27.7874 25.0562 27.8997 25.5056L28.2368 27.8652Z" fill="#F86168"/>
</svg>
