<svg width="91" height="90" viewBox="0 0 91 90" fill="none" xmlns="http://www.w3.org/2000/svg">
<path d="M45.5 90C36.7767 90 29.6797 82.903 29.6797 74.1797V60.6445H16.3203C7.59699 60.6445 0.5 53.5475 0.5 44.8242C0.5 36.1009 7.59699 29.0039 16.3203 29.0039H29.6797V15.8203C29.6797 7.09699 36.7767 0 45.5 0C54.2233 0 61.3203 7.09699 61.3203 15.8203V29.0039H74.6797C83.403 29.0039 90.5 36.1009 90.5 44.8242C90.5 46.7659 88.9261 48.3398 86.9844 48.3398C85.0427 48.3398 83.4688 46.7659 83.4688 44.8242C83.4688 39.9779 79.526 36.0352 74.6797 36.0352H57.8047C55.863 36.0352 54.2891 34.4612 54.2891 32.5195V15.8203C54.2891 10.974 50.3463 7.03125 45.5 7.03125C40.6537 7.03125 36.7109 10.974 36.7109 15.8203V32.5195C36.7109 34.4612 35.137 36.0352 33.1953 36.0352H16.3203C11.474 36.0352 7.53125 39.9779 7.53125 44.8242C7.53125 49.6705 11.474 53.6133 16.3203 53.6133H33.1953C35.137 53.6133 36.7109 55.1872 36.7109 57.1289V74.1797C36.7109 79.026 40.6537 82.9688 45.5 82.9688C50.3463 82.9688 54.2891 79.026 54.2891 74.1797V57.1289C54.2891 55.1872 55.863 53.6133 57.8047 53.6133C59.7464 53.6133 61.3203 55.1872 61.3203 57.1289V74.1797C61.3203 82.903 54.2233 90 45.5 90Z" fill="white"/>
<path d="M74.6797 60.6446H71.5156C69.5739 60.6446 68 59.0706 68 57.1289C68 55.1873 69.5739 53.6133 71.5156 53.6133H74.6797C75.8564 53.6133 77.0388 53.3574 78.1941 52.8527C79.9735 52.0756 82.0459 52.8875 82.8231 54.6668C83.6004 56.4459 82.7883 58.5185 81.009 59.2958C78.9606 60.1909 76.8311 60.6446 74.6797 60.6446Z" fill="white"/>
</svg>
