<svg width="31" height="30" viewBox="0 0 31 30" fill="none" xmlns="http://www.w3.org/2000/svg">
<g clip-path="url(#clip0)">
<path d="M30.3321 5.95996L21.2337 14.9997L30.3321 24.0395C30.4966 23.6958 30.5964 23.3157 30.5964 22.9099V7.08959C30.5964 6.68371 30.4966 6.30373 30.3321 5.95996Z" fill="#1175BB"/>
<path d="M27.9596 4.45312H3.23308C2.8272 4.45312 2.44722 4.55291 2.10345 4.71738L13.7321 16.2875C14.7604 17.3157 16.4324 17.3157 17.4606 16.2875L29.0893 4.71738C28.7455 4.55291 28.3655 4.45312 27.9596 4.45312Z" fill="#1175BB"/>
<path d="M0.860632 5.95996C0.69616 6.30373 0.596375 6.68371 0.596375 7.08959V22.9099C0.596375 23.3158 0.69616 23.6958 0.860632 24.0395L9.95901 14.9997L0.860632 5.95996Z" fill="#1175BB"/>
<path d="M19.9909 16.2432L18.7034 17.5306C16.9902 19.2439 14.2025 19.2439 12.4893 17.5306L11.2018 16.2432L2.10345 25.2829C2.44722 25.4474 2.8272 25.5472 3.23308 25.5472H27.9596C28.3655 25.5472 28.7455 25.4474 29.0893 25.2829L19.9909 16.2432Z" fill="#1175BB"/>
</g>
<defs>
<clipPath id="clip0">
<rect width="30" height="30" fill="white" transform="translate(0.596375)"/>
</clipPath>
</defs>
</svg>
