<svg width="51" height="36" viewBox="0 0 51 36" fill="none" xmlns="http://www.w3.org/2000/svg">
<g opacity="0.3">
<path d="M40.0169 12.6484C41.0174 7.44379 42.518 3.72625 43.7685 1.49572C44.2688 0.628292 43.2683 -0.363056 42.393 0.132618C31.8885 6.20461 27.2615 15.1267 26.6363 22.1901C26.136 28.386 30.3878 34.7058 36.7656 35.821C43.1433 36.9363 49.2709 32.7231 50.3964 26.4033C51.6469 19.7117 46.8949 13.2679 40.0169 12.6484Z" fill="white"/>
<path d="M13.9475 12.6484C14.9427 7.44379 16.4356 3.72625 17.6796 1.49572C18.1773 0.628292 17.182 -0.363056 16.3112 0.132618C5.86109 6.20461 1.25808 15.1267 0.636049 22.1901C0.138426 28.386 4.36822 34.7058 10.7129 35.821C17.0576 36.9363 23.1535 32.7231 24.3976 26.4033C25.6416 19.7117 20.9142 13.2679 13.9475 12.6484Z" fill="white"/>
</g>
</svg>
