<svg width="31" height="31" viewBox="0 0 31 31" fill="none" xmlns="http://www.w3.org/2000/svg">
<path d="M6.95467 17.4115C7.50033 16.8458 8.15851 16.5434 8.85606 16.5434C9.54799 16.5434 10.2118 16.8402 10.78 17.4059L12.5576 19.17C12.7038 19.0916 12.8501 19.0188 12.9907 18.946C13.1933 18.8452 13.3845 18.75 13.5477 18.6491C15.2128 17.5963 16.726 16.2242 18.1774 14.4489C18.8806 13.564 19.3531 12.8192 19.6962 12.0631C19.235 11.6431 18.8074 11.2063 18.3911 10.7862C18.2336 10.6294 18.0761 10.467 17.9186 10.3102C16.7373 9.13413 16.7373 7.61084 17.9186 6.43476L19.4543 4.90586C19.6287 4.73225 19.8087 4.55304 19.9775 4.37383C20.315 4.02661 20.6694 3.66819 21.0351 3.33216C21.5808 2.79453 22.2333 2.50891 22.9196 2.50891C23.6059 2.50891 24.2697 2.79453 24.8322 3.33216C24.8379 3.33776 24.8379 3.33776 24.8435 3.34336L26.7561 5.26429C27.4762 5.98113 27.8868 6.85479 27.9769 7.86845C28.1119 9.50376 27.6281 11.0271 27.2568 12.0239C26.3455 14.4713 24.9841 16.7394 22.9534 19.17C20.4894 22.099 17.5248 24.4119 14.1383 26.0416C12.8445 26.6521 11.1175 27.3745 9.18796 27.4977C9.06982 27.5033 8.94607 27.5089 8.83356 27.5089C7.53409 27.5089 6.44275 27.0441 5.58769 26.12C5.58207 26.1088 5.57082 26.1032 5.56519 26.092C5.27267 25.7392 4.93514 25.42 4.58074 25.0784C4.33885 24.8487 4.09133 24.6079 3.84944 24.3559C3.29252 23.7791 3 23.107 3 22.4182C3 21.7237 3.29815 21.0573 3.86632 20.4973L6.95467 17.4115ZM4.94077 23.3086C4.94639 23.3086 4.94639 23.3142 4.94077 23.3086C5.16016 23.5439 5.38518 23.7567 5.62707 23.9919C5.99272 24.3391 6.364 24.7031 6.71277 25.112C7.28094 25.7168 7.95037 26.0024 8.82793 26.0024C8.91231 26.0024 9.00232 26.0024 9.0867 25.9968C10.7575 25.8904 12.3101 25.2408 13.4745 24.6863C16.6585 23.1518 19.4543 20.9733 21.7776 18.2123C23.6959 15.9106 24.9785 13.7824 25.8279 11.4975C26.3511 10.103 26.5424 9.01653 26.458 7.99166C26.4017 7.33642 26.1486 6.79319 25.6817 6.32836L23.7634 4.41863C23.4878 4.16102 23.1952 4.02101 22.9084 4.02101C22.5539 4.02101 22.2671 4.23382 22.087 4.41303C22.0814 4.41863 22.0758 4.42423 22.0702 4.42983C21.727 4.74905 21.4007 5.07948 21.0576 5.4323C20.8832 5.61151 20.7032 5.79072 20.5232 5.97553L18.9874 7.50443C18.3911 8.09807 18.3911 8.6469 18.9874 9.24054C19.1506 9.40295 19.3081 9.56536 19.4712 9.72217C19.9438 10.2038 20.3938 10.6518 20.8832 11.0887C20.8945 11.0999 20.9057 11.1055 20.9113 11.1167C21.3951 11.5983 21.3051 12.0687 21.2039 12.3879C21.1982 12.4047 21.1926 12.4215 21.187 12.4383C20.7876 13.4016 20.225 14.3089 19.37 15.3897L19.3643 15.3953C17.8117 17.2995 16.1747 18.7836 14.369 19.9204C14.1383 20.066 13.9021 20.1836 13.677 20.2957C13.4745 20.3965 13.2833 20.4917 13.1201 20.5925C13.0976 20.6037 13.0751 20.6205 13.0526 20.6317C12.8614 20.7269 12.6813 20.7717 12.4957 20.7717C12.0288 20.7717 11.7363 20.4805 11.6406 20.3853L9.71675 18.4699C9.52548 18.2795 9.22171 18.0499 8.86731 18.0499C8.51854 18.0499 8.23164 18.2683 8.05725 18.4587C8.05163 18.4643 8.05162 18.4643 8.046 18.4699L4.94639 21.5557C4.36698 22.127 4.36698 22.715 4.94077 23.3086Z" fill="#1175BB"/>
</svg>
