<svg width="21" height="21" viewBox="0 0 21 21" fill="none" xmlns="http://www.w3.org/2000/svg">
<path d="M19.0174 13.6684C17.7837 13.6684 16.5753 13.4758 15.4301 13.0979C14.8711 12.9053 14.2364 13.0537 13.869 13.4284L11.5985 15.1432C8.99322 13.7527 7.32585 12.0863 5.95429 9.50001L7.6227 7.28316C8.0427 6.86316 8.19324 6.24841 8.01324 5.67264C7.63217 4.52 7.4385 3.31053 7.4385 2.07895C7.4385 1.20841 6.7301 0.5 5.85955 0.5H2.17532C1.30478 0.5 0.596375 1.20841 0.596375 2.07895C0.596375 12.2358 8.86059 20.5 19.0174 20.5C19.888 20.5 20.5964 19.7916 20.5964 18.9211V15.2474C20.5964 14.3768 19.888 13.6684 19.0174 13.6684Z" fill="#1175BB"/>
</svg>
