<svg width="21" height="20" viewBox="0 0 21 20" fill="none" xmlns="http://www.w3.org/2000/svg">
<g clip-path="url(#clip0)">
<path d="M19.9281 2.73409C19.6339 2.43936 19.1565 2.43885 18.8623 2.73284L9.81962 11.7517L6.55704 8.20819C6.27513 7.90217 5.79848 7.88233 5.49196 8.1642C5.18567 8.44612 5.16606 8.92299 5.44798 9.22928L9.24196 13.3496C9.38091 13.5006 9.57536 13.5883 9.7804 13.5926C9.78591 13.5928 9.79122 13.5928 9.79649 13.5928C9.99575 13.5928 10.1874 13.5137 10.3286 13.373L19.9266 3.80014C20.2216 3.5062 20.2221 3.02881 19.9281 2.73409Z" fill="#F8676E"/>
<path d="M19.7462 9.24621C19.3299 9.24621 18.9925 9.58363 18.9925 10C18.9925 14.6829 15.1829 18.4925 10.5 18.4925C5.81734 18.4925 2.00754 14.6829 2.00754 10C2.00754 5.31734 5.81734 1.50754 10.5 1.50754C10.9163 1.50754 11.2538 1.17012 11.2538 0.753789C11.2538 0.337422 10.9163 0 10.5 0C4.98594 0 0.5 4.48594 0.5 10C0.5 15.5138 4.98594 20 10.5 20C16.0138 20 20.5 15.5138 20.5 10C20.5 9.58367 20.1626 9.24621 19.7462 9.24621Z" fill="#F8676E"/>
</g>
<defs>
<clipPath id="clip0">
<rect width="20" height="20" fill="white" transform="translate(0.5)"/>
</clipPath>
</defs>
</svg>
