<svg width="21" height="20" viewBox="0 0 21 20" fill="none" xmlns="http://www.w3.org/2000/svg">
<g clip-path="url(#clip0)">
<path d="M19.9282 2.73409C19.6339 2.43936 19.1566 2.43885 18.8623 2.73284L9.81965 11.7517L6.55707 8.20819C6.27516 7.90217 5.79852 7.88233 5.49199 8.1642C5.1857 8.44612 5.16609 8.92299 5.44801 9.22928L9.24199 13.3496C9.38094 13.5006 9.57539 13.5883 9.78043 13.5926C9.78594 13.5928 9.79125 13.5928 9.79652 13.5928C9.99578 13.5928 10.1875 13.5137 10.3287 13.373L19.9267 3.80014C20.2216 3.5062 20.2221 3.02881 19.9282 2.73409Z" fill="#B758D8"/>
<path d="M19.7462 9.24621C19.3299 9.24621 18.9925 9.58363 18.9925 10C18.9925 14.6829 15.1829 18.4925 10.5 18.4925C5.81734 18.4925 2.00754 14.6829 2.00754 10C2.00754 5.31734 5.81734 1.50754 10.5 1.50754C10.9163 1.50754 11.2538 1.17012 11.2538 0.753789C11.2538 0.337422 10.9163 0 10.5 0C4.98594 0 0.5 4.48594 0.5 10C0.5 15.5138 4.98594 20 10.5 20C16.0138 20 20.5 15.5138 20.5 10C20.5 9.58367 20.1626 9.24621 19.7462 9.24621Z" fill="#B758D8"/>
</g>
<defs>
<clipPath id="clip0">
<rect width="20" height="20" fill="white" transform="translate(0.5)"/>
</clipPath>
</defs>
</svg>
