<svg width="18" height="19" viewBox="0 0 18 19" fill="none" xmlns="http://www.w3.org/2000/svg">
<g clip-path="url(#clip0)">
<path d="M16.0711 0.5H7.71392C6.6488 0.5 5.78535 1.36345 5.78535 2.42857V6.28571C5.78535 6.64076 6.07316 6.92858 6.42822 6.92858C6.78327 6.92858 7.07108 6.64076 7.07108 6.28571V2.42857C7.07108 2.07352 7.3589 1.7857 7.71395 1.7857H16.0711C16.4262 1.7857 16.714 2.07352 16.714 2.42857V16.5714C16.714 16.9265 16.4262 17.2143 16.0711 17.2143H7.71392C7.35886 17.2143 7.07105 16.9265 7.07105 16.5714V12.7143C7.07105 12.3592 6.78323 12.0714 6.42818 12.0714C6.07313 12.0714 5.78531 12.3592 5.78531 12.7143V16.5714C5.78531 17.6365 6.64876 18.5 7.71388 18.5H16.071C17.1362 18.5 17.9996 17.6365 17.9996 16.5714V2.42857C17.9996 1.36345 17.1362 0.5 16.0711 0.5Z" fill="#1175BB"/>
<path d="M0.643314 8.85714H11.3057L9.18876 6.7402C8.94212 6.48482 8.9492 6.07786 9.20458 5.83122C9.45372 5.59063 9.84866 5.59063 10.0978 5.83122L13.3121 9.04548C13.3718 9.10522 13.419 9.17622 13.4509 9.25442C13.5159 9.41168 13.5159 9.5883 13.4509 9.74557C13.4188 9.82403 13.3714 9.89526 13.3114 9.95515L10.0972 13.1694C9.8505 13.4248 9.44355 13.4319 9.18816 13.1852C8.93278 12.9386 8.92569 12.5316 9.17234 12.2762C9.1775 12.2709 9.18277 12.2656 9.18816 12.2604L11.3057 10.1428H0.643276C0.288224 10.1428 0.000408173 9.85503 0.000408173 9.49997C0.000408173 9.14492 0.288261 8.85714 0.643314 8.85714Z" fill="#1175BB"/>
</g>
<defs>
<clipPath id="clip0">
<rect width="18" height="18" fill="white" transform="translate(0 0.5)"/>
</clipPath>
</defs>
</svg>
