<svg width="11" height="10" viewBox="0 0 11 10" fill="none" xmlns="http://www.w3.org/2000/svg">
<g clip-path="url(#clip0)">
<path d="M10.1139 4.5979H0.998528C0.776416 4.5979 0.596375 4.77806 0.596375 5.00006C0.596375 5.22206 0.776397 5.40222 0.998528 5.40222H10.1139C10.336 5.40222 10.5161 5.22219 10.5161 5.00006C10.5161 4.77792 10.3361 4.5979 10.1139 4.5979Z" fill="white"/>
<path d="M10.4785 4.71556L6.53761 0.774469C6.3805 0.617495 6.12608 0.617495 5.96897 0.774469C5.81186 0.931581 5.81186 1.18627 5.96897 1.34325L9.62559 5L5.96897 8.65676C5.81186 8.81374 5.81186 9.06843 5.96897 9.22541C6.04752 9.30396 6.15034 9.34324 6.25329 9.34324C6.35624 9.34324 6.45905 9.30396 6.53761 9.22541L10.4785 5.28434C10.6357 5.12722 10.6357 4.87251 10.4785 4.71556Z" fill="white"/>
</g>
<defs>
<clipPath id="clip0">
<rect width="10" height="10" fill="white" transform="translate(0.596375)"/>
</clipPath>
</defs>
</svg>
