<svg width="71" height="70" viewBox="0 0 71 70" fill="none" xmlns="http://www.w3.org/2000/svg">
<g clip-path="url(#clip0)">
<path d="M18.78 11.3477C18.0253 11.3477 17.4128 11.9602 17.4128 12.7148C17.4128 13.4695 18.0253 14.082 18.78 14.082C19.5347 14.082 20.1472 13.4695 20.1472 12.7148C20.1472 11.9602 19.5347 11.3477 18.78 11.3477Z" fill="#1175BB"/>
<path d="M35.5964 0C16.7319 0 0.596375 16.1056 0.596375 35C0.596375 53.8687 16.7039 70 35.5964 70C54.4608 70 70.5964 53.8944 70.5964 35C70.5964 16.1313 54.4889 0 35.5964 0ZM35.5964 67.2656C18.1066 67.2656 3.33075 52.4897 3.33075 35C3.33075 17.5103 18.1066 2.73438 35.5964 2.73438C53.0861 2.73438 67.862 17.5103 67.862 35C67.862 52.4897 53.0861 67.2656 35.5964 67.2656Z" fill="#1175BB"/>
<path d="M35.5964 5.87891C31.2125 5.87891 26.575 6.89063 22.8731 8.65471C22.1915 8.97955 21.9021 9.79549 22.2269 10.477C22.5516 11.1586 23.3673 11.4483 24.0492 11.1232C27.3965 9.52807 31.6054 8.61328 35.5964 8.61328C49.8995 8.61328 61.9831 20.6969 61.9831 35C61.9831 49.3031 49.8995 61.3867 35.5964 61.3867C21.2933 61.3867 9.20966 49.3031 9.20966 35C9.20966 28.4668 11.6065 22.0274 15.7857 17.3331C16.2879 16.7691 16.2377 15.9049 15.6737 15.4029C15.1096 14.9006 14.2457 14.9513 13.7435 15.5148C9.12434 20.7033 6.47528 27.8053 6.47528 35C6.47528 50.8222 19.7511 64.1211 35.5964 64.1211C51.4186 64.1211 64.7175 50.8453 64.7175 35C64.7175 19.1778 51.4417 5.87891 35.5964 5.87891Z" fill="#1175BB"/>
<path d="M52.0026 28.1641H42.4323V18.5938C42.4323 17.8388 41.8201 17.2266 41.0651 17.2266H30.1276C29.3727 17.2266 28.7604 17.8388 28.7604 18.5938V28.1641H19.1901C18.4352 28.1641 17.8229 28.7763 17.8229 29.5312V40.4688C17.8229 41.2237 18.4352 41.8359 19.1901 41.8359H28.7604V51.4062C28.7604 52.1612 29.3727 52.7734 30.1276 52.7734H41.0651C41.8201 52.7734 42.4323 52.1612 42.4323 51.4062V41.8359H52.0026C52.7576 41.8359 53.3698 41.2237 53.3698 40.4688V29.5312C53.3698 28.7763 52.7576 28.1641 52.0026 28.1641ZM50.6354 39.1016H41.0651C40.3102 39.1016 39.6979 39.7138 39.6979 40.4688V50.0391H31.4948V40.4688C31.4948 39.7138 30.8826 39.1016 30.1276 39.1016H20.5573V30.8984H30.1276C30.8826 30.8984 31.4948 30.2862 31.4948 29.5312V19.9609H39.6979V29.5312C39.6979 30.2862 40.3102 30.8984 41.0651 30.8984H50.6354V39.1016Z" fill="#1175BB"/>
</g>
<defs>
<clipPath id="clip0">
<rect width="70" height="70" fill="white" transform="translate(0.596375)"/>
</clipPath>
</defs>
</svg>
