<svg width="59" height="59" viewBox="0 0 59 59" fill="none" xmlns="http://www.w3.org/2000/svg">
<g filter="url(#filter0_d)">
<path d="M29.7886 2.00439C15.7073 2.00439 4.78857 12.3231 4.78857 26.2544C4.78857 33.5419 7.77607 39.8419 12.6386 44.1919C13.0448 44.5544 13.2948 45.0669 13.3073 45.6169L13.4448 50.0669C13.4886 51.4856 14.9511 52.4106 16.2511 51.8356L21.2136 49.6481C21.6323 49.4606 22.1073 49.4294 22.5511 49.5481C24.8323 50.1731 27.2573 50.5106 29.7886 50.5106C43.8698 50.5106 54.7886 40.1919 54.7886 26.2606C54.7886 12.3294 43.8698 2.00439 29.7886 2.00439Z" fill="#0077FF"/>
</g>
<path d="M18.1335 30.4326C19.6229 30.4326 21.0236 30.4228 22.4144 30.4326C23.1937 30.4425 23.6178 30.7689 23.6967 31.3921C23.7855 32.1734 23.3318 32.6977 22.4835 32.7075C20.8855 32.7273 19.2974 32.7174 17.6995 32.7174C17.2359 32.7174 16.7821 32.7372 16.3185 32.7075C15.7464 32.6779 15.1842 32.5592 14.9179 31.9657C14.6417 31.3723 14.839 30.8382 15.2138 30.3535C16.7328 28.4149 18.2617 26.4664 19.7906 24.5278C19.8794 24.4091 19.9682 24.2904 20.0569 24.1816C19.9682 24.0135 19.8202 24.0926 19.7018 24.0926C18.6365 24.0827 17.5614 24.0926 16.4961 24.0827C16.2495 24.0827 16.0029 24.0629 15.7662 24.0036C15.273 23.875 14.9672 23.4794 14.9672 23.0046C14.9672 22.5298 15.2532 22.1243 15.7464 21.9858C15.9832 21.9166 16.2298 21.8968 16.4764 21.8968C18.2321 21.8869 19.9978 21.8869 21.7535 21.8968C22.0692 21.8968 22.375 21.9067 22.6807 22.0056C23.3515 22.2331 23.6375 22.8562 23.3712 23.509C23.1345 24.0728 22.7597 24.5575 22.3848 25.0421C21.0828 26.6741 19.7808 28.316 18.4886 29.9579C18.39 30.0865 18.2913 30.215 18.1335 30.4326Z" fill="white"/>
<path d="M29.5756 25.2204C29.8123 24.9138 30.0589 24.6269 30.4633 24.5478C31.2426 24.3895 31.9725 24.894 31.9823 25.6852C32.0119 27.6634 32.0021 29.6416 31.9823 31.6198C31.9823 32.1638 31.647 32.5693 31.1636 32.7374C30.6507 32.9155 30.1279 32.7869 29.7827 32.3517C29.615 32.144 29.546 32.1044 29.3092 32.2923C28.4116 33.0243 27.3956 33.1529 26.3008 32.7968C24.545 32.2231 23.8249 30.8483 23.6276 29.1668C23.4205 27.3568 24.0222 25.8138 25.63 24.8643C26.9814 24.0829 28.3426 24.1423 29.5756 25.2204ZM26.0837 28.8404C26.0936 29.1767 26.2021 29.6416 26.498 30.0372C27.1392 30.8977 28.4511 30.8977 29.0824 30.0372C29.6347 29.2855 29.6347 28.0492 29.0824 27.2975C28.7864 26.9018 28.4018 26.6941 27.9086 26.6644C26.8334 26.6051 26.0739 27.4458 26.0837 28.8404Z" fill="white"/>
<path d="M36.4113 28.8996C36.3323 26.3577 37.9993 24.4586 40.3568 24.3894C42.8721 24.3103 44.7068 26.0016 44.7857 28.4743C44.8646 30.9767 43.3357 32.7472 40.9782 32.9845C38.4136 33.2318 36.3718 31.3624 36.4113 28.8996ZM38.8871 28.6523C38.8871 29.1568 39.0055 29.6315 39.3112 30.0371C39.9327 30.8778 41.2347 30.8877 41.866 30.0569C42.4381 29.3051 42.4381 28.0391 41.8758 27.2874C41.5799 26.8918 41.1854 26.694 40.702 26.6643C39.6367 26.6049 38.897 27.4259 38.8871 28.6523Z" fill="white"/>
<path d="M35.5433 26.9314C35.5433 28.4645 35.5532 29.9976 35.5433 31.5307C35.5335 32.411 34.7641 33.0044 33.9355 32.7868C33.4423 32.6582 33.0675 32.134 33.0675 31.5109C33.0675 28.8898 33.0675 26.2687 33.0675 23.6477C33.0675 23.1828 33.0576 22.7278 33.0675 22.2629C33.0774 21.5013 33.5607 21.0068 34.2906 21.0068C35.0403 20.9969 35.5433 21.4915 35.5433 22.2827C35.5532 23.8356 35.5433 25.3786 35.5433 26.9314Z" fill="white"/>
<circle cx="46.7886" cy="10.0044" r="5.5" fill="#7ED321" stroke="white"/>
<defs>
<filter id="filter0_d" x="0.788574" y="0.00439453" width="58" height="58.0044" filterUnits="userSpaceOnUse" color-interpolation-filters="sRGB">
<feFlood flood-opacity="0" result="BackgroundImageFix"/>
<feColorMatrix in="SourceAlpha" type="matrix" values="0 0 0 0 0 0 0 0 0 0 0 0 0 0 0 0 0 0 127 0"/>
<feOffset dy="2"/>
<feGaussianBlur stdDeviation="2"/>
<feColorMatrix type="matrix" values="0 0 0 0 0 0 0 0 0 0 0 0 0 0 0 0 0 0 0.25 0"/>
<feBlend mode="normal" in2="BackgroundImageFix" result="effect1_dropShadow"/>
<feBlend mode="normal" in="SourceGraphic" in2="effect1_dropShadow" result="shape"/>
</filter>
</defs>
</svg>
